<svg id="Layer_1" data-name="Layer 1" xmlns="http://www.w3.org/2000/svg" viewBox="0 0 713.81 215.59"><defs><style>.cls-1{fill:#c6093b;}.cls-2,.cls-4,.cls-6{fill:none;}.cls-3{fill:#f0814b;}.cls-4,.cls-6{stroke:#bd292e;}.cls-4{stroke-width:0.75px;}.cls-5{fill:#f5c123;}.cls-6{stroke-width:0.37px;}</style></defs><title>morrison01</title><path class="cls-1" d="M126.2,205.26l-.19,1.87c0,7.65,5.6,13.25,12.32,13.25,9,0,19-7.84,28.75-17C182.76,189,195,154.38,201,140.2c3.17-6.53,5-10.64,5.79-11.95.19-.56.75-1.68,1.68-3.55,1.68-3.55,3.92-6.16,6.35-6.35.75,0,1.12.37,1.12,1.31,0,2.05-1.12,5.41-3.55,10.08l-2.43,5c-1.68,3.73-10.36,31.09-11.85,34.08-11,22.4-26.13,45.92-52.82,55.81a29.38,29.38,0,0,1-9.71,1.87,23,23,0,0,1-19-11A21.4,21.4,0,0,1,113.14,204a45.84,45.84,0,0,1,3-15.12c6.53-19.23,15.68-34.53,32.11-59.92l3.73-5.79,43.68-67.38c1.49-2.24,3-4.67,4.67-7.47l3-4.67a123.25,123.25,0,0,0,7.28-13.44,13.92,13.92,0,0,0,1.87-7.09c0-5-4.11-5.6-6.35-4.29A12.25,12.25,0,0,0,202.92,21a18.54,18.54,0,0,1-2.24,2.05c-7.65,5.79-14,11.2-19.41,15.87-22.21,19.41-34.35,32.85-51.33,54.5l-9.52,11.95c-1.49,1.68-4.11,5.41-5.41,7.09-8.77,11.95-15.12,19-23.89,20.53-3.73-.75-5.6-2.8-5.6-6.35l.19-2.05c.93-9.52,4.29-16.8,10.45-29.3,4.29-8.4,4.48-9,6.16-13.44.56-1.87,1.12-3,1.31-3.55l-1.49-1.12c-4.85,2.61-9.71,7.09-14.75,13.44a105.56,105.56,0,0,1-8,9.71c-17,20.72-26.13,32.85-32.85,49.09-.19-.19-.37,1.12-.75,3.73-.75,5.41-4.29,6.72-7.09,6.72-4.48,0-8-4.67-8-9.71,0-5.23,4.29-13.07,9-21.65,2.43-4.29,4.67-8.4,7.09-12.32,12.51-21.47,17.55-31,20-44.42a9.12,9.12,0,0,0,.19-2.43c0-4.67-3-7.09-7.28-7.09-5,0-9.89,2.43-16.61,9.15-9.15,9.15-15.49,19-19,29.3a58.12,58.12,0,0,0-3.73,19,12.31,12.31,0,0,0,.19,2.61c.19.93.19,1.68.37,2.61a38.83,38.83,0,0,1,.93,7.47c0,2.43-.56,4.11-1.68,4.85a5.18,5.18,0,0,1-2.24.93c-3.73,0-4.48-8.59-4.48-15.49A79,79,0,0,1,30.45,70.68c8-10.27,15.68-17,25.39-18.48A7.69,7.69,0,0,1,58.07,52c6.16,0,12.32,4.11,16.05,10.27,3.55,6.16,2.8,12.88,1.31,18.11-.93,2.8-2.05,6-3.73,9.89-.75,1.49-1.68,3.92-3,7.09a22.34,22.34,0,0,1-1.49,3.92l-1.68,3.92c-.19.19.75.75,1.31.75a86.81,86.81,0,0,0,9.89-12.13c3.92-5,6-8,6.53-8.59a186.73,186.73,0,0,1,17.17-18.48,6.25,6.25,0,0,1,4.67-2.05c4.48,0,9.15,3.92,10.45,8.4a18.79,18.79,0,0,1,.56,4.67,29.86,29.86,0,0,1-1.49,8.77A85,85,0,0,1,107.54,103c-.56,1.31-1.31,2.61-1.87,3.92a49.55,49.55,0,0,0-2.24,4.48c1.49.75,6.72-4.29,8.77-7.09,1.68-2.24,3-3.92,3.73-5l6.72-8.77a451.39,451.39,0,0,1,50.21-55.25C186.87,22,192.09,17.29,202,13a22.13,22.13,0,0,1,7.84-2.05c3.73,0,6.91,2.05,10.64,6.72a17.23,17.23,0,0,1,3.36,10.64A21.77,21.77,0,0,1,221,39.13c-8.4,15.87-17.73,29.68-31.92,50.4l-11.39,16.61c-3.17,4.85-5,7.65-5.41,8.21-11.39,17-17.92,26.88-24.45,38.82C135.16,175.77,128.44,189,126.2,205.26Z" transform="translate(-13.19 -10.95)"/><path class="cls-1" d="M273.67,125.93c0,1.49,0,1.68-1.49,3.17-5.23,4.29-8.4,5.23-14.37,5.23-4.67,0-7.28-.75-11.76-2.43l-3.73,3.92a48.7,48.7,0,0,1-4.11,4.29c-5,4.48-10.08,6.72-15.49,6.72-6.72,0-17.92-3-17.92-16.61a16.53,16.53,0,0,1,7.47-13.63,5.94,5.94,0,0,1,3.17-1.31,4.34,4.34,0,0,1,4.11,4.48,4.52,4.52,0,0,1-.75,2.43q-3.36,5.88-3.36,10.08c0,5.79,3,9.89,7.47,9.89a6.38,6.38,0,0,0,3.36-.75c6.91-2.8,11.76-6.91,14.93-12.69a41.3,41.3,0,0,0-4.48-3.55c-9-6.16-13.44-16.24-13.44-26.69a35.49,35.49,0,0,1,8.4-23.33C235,71.05,239.14,69,243.8,69c7.65,0,14.56,6.16,17.17,11.95a23.4,23.4,0,0,1,1.87,9.89c0,8.4-2.8,15.49-7.84,25.39l-4.48,9a16.45,16.45,0,0,0,10.08,3.73,10.22,10.22,0,0,0,6.35-1.87,13.71,13.71,0,0,0,1.87-1.68,5.68,5.68,0,0,1,1.87-1.31h.37a3.55,3.55,0,0,1,2.43.93C273.67,125.18,273.67,125.37,273.67,125.93ZM232.41,97.19c0,9.71,4.48,18.67,14.75,24.64L255,104.46a36.16,36.16,0,0,0,2.8-14.56c0-9.52-8.59-15.68-13.07-15.68-3,0-5.6,2.24-8,6.53A35.35,35.35,0,0,0,232.41,97.19Z" transform="translate(-13.19 -10.95)"/><path class="cls-1" d="M355.05,125.74a3.83,3.83,0,0,1-1.31,3c-5.41,5.41-14.19,13.25-20,18.29a114.08,114.08,0,0,1-24.08,16.8c-4.48,2.43-7.28,3.36-11.2,3.55a6.38,6.38,0,0,1-2.05.19c-3.92,0-9.33-1.49-9.33-8.4,0-.56.19-1.49.37-3,1.68-6.53,5-14.37,8-21.28,1.31-3.36,3.73-8.4,6.91-15.12l3.92-8.59a19.39,19.39,0,0,0,1.87-6.53c.19-1.68.37-2.8.37-3.36,0-3.73-1.68-5.6-6.91-9.15-.19.56-1.87,2.8-4.85,7.09a205.56,205.56,0,0,1-25.76,30.61A2.34,2.34,0,0,1,269,131c-1.31,0-2.24-1.68-2.24-2.43a3.23,3.23,0,0,1,1.12-2.24,13.9,13.9,0,0,0,1.49-1.31l15.49-17.36c1.68-1.87,3.92-4.67,6.91-8.4a30.76,30.76,0,0,1,3.55-4.67c.93-.93,3.36-3.92,3.17-4.11a5.75,5.75,0,0,1-.37-1.49c-.19-.37-.19-.56-.37-.75-5.41-4.29-8.21-9.71-8.21-16.43a38.06,38.06,0,0,1,1.31-9c2.43-8.59,5.41-15.68,9.33-21.47,2.8-3.92,7.09-6.91,11.57-6.91,5.41,0,9.71,4.11,9.89,10.64a35,35,0,0,1-3.73,17.55c-1.31,2.24-4.67,9-10.45,20.16-.19.56-.93,1.87-2.05,4.29l3,2.8c6.53,5.41,9.71,11.57,9.71,18.85,0,6.72-3.17,14-8.21,23.71l-3,6.53c-3.36,6.72-5.23,10.45-5.6,11.39a16.08,16.08,0,0,0-1.68,6.35,3.64,3.64,0,0,0,3.73,4.11,5.53,5.53,0,0,0,1.87-.37l3.55-1.49c8.4-3.92,10.83-5,20-13.81l.56-.56,13.63-12.13,6-5.79a14,14,0,0,0,1.31-1.49,3.92,3.92,0,0,1,1.49-1.12c.19-.19.37-.19.75-.19a3.09,3.09,0,0,1,2.24.93A1.1,1.1,0,0,1,355.05,125.74ZM302,73.48a18.7,18.7,0,0,0,1.68,8.4l3.92-8.4c6.53-14,9.33-20.53,9.52-31.17C308.39,48.84,302,62.47,302,73.48Z" transform="translate(-13.19 -10.95)"/><path class="cls-1" d="M436.62,125.74a3.83,3.83,0,0,1-1.31,3c-5.41,5.41-14.19,13.25-20,18.29a114.08,114.08,0,0,1-24.08,16.8c-4.48,2.43-7.28,3.36-11.2,3.55a6.38,6.38,0,0,1-2.05.19c-3.92,0-9.33-1.49-9.33-8.4,0-.56.19-1.49.37-3,1.68-6.53,5-14.37,8-21.28,1.31-3.36,3.73-8.4,6.91-15.12l3.92-8.59a19.39,19.39,0,0,0,1.87-6.53c.19-1.68.37-2.8.37-3.36,0-3.73-1.68-5.6-6.91-9.15-.19.56-1.87,2.8-4.85,7.09a205.56,205.56,0,0,1-25.76,30.61,2.34,2.34,0,0,1-2.05,1.12c-1.31,0-2.24-1.68-2.24-2.43a3.23,3.23,0,0,1,1.12-2.24,13.9,13.9,0,0,0,1.49-1.31l15.49-17.36c1.68-1.87,3.92-4.67,6.91-8.4a30.76,30.76,0,0,1,3.55-4.67c.93-.93,3.36-3.92,3.17-4.11a5.75,5.75,0,0,1-.37-1.49c-.19-.37-.19-.56-.37-.75-5.41-4.29-8.21-9.71-8.21-16.43a38.06,38.06,0,0,1,1.31-9c2.43-8.59,5.41-15.68,9.33-21.47,2.8-3.92,7.09-6.91,11.57-6.91,5.41,0,9.71,4.11,9.89,10.64a35,35,0,0,1-3.73,17.55c-1.31,2.24-4.67,9-10.45,20.16-.19.56-.93,1.87-2.05,4.29l3,2.8c6.53,5.41,9.71,11.57,9.71,18.85,0,6.72-3.17,14-8.21,23.71l-3,6.53c-3.36,6.72-5.23,10.45-5.6,11.39a16.08,16.08,0,0,0-1.68,6.35,3.64,3.64,0,0,0,3.73,4.11,5.53,5.53,0,0,0,1.87-.37l3.55-1.49c8.4-3.92,10.83-5,20-13.81l.56-.56,13.63-12.13,6-5.79a14,14,0,0,0,1.31-1.49,3.92,3.92,0,0,1,1.49-1.12c.19-.19.37-.19.75-.19a3.09,3.09,0,0,1,2.24.93A1.1,1.1,0,0,1,436.62,125.74Zm-53-52.26a18.7,18.7,0,0,0,1.68,8.4l3.92-8.4c6.53-14,9.33-20.53,9.52-31.17C390,48.84,383.61,62.47,383.61,73.48Z" transform="translate(-13.19 -10.95)"/><path class="cls-1" d="M499.71,128.92c-17.17,17.17-34.35,29.31-54.69,35.28a28.45,28.45,0,0,1-7.84,1.12h-.37c-.56,0-1.49-.19-2.8-.37l-1.12-.19a13.42,13.42,0,0,1-9-8.4,19.79,19.79,0,0,1-.93-5.79c0-6.72,2.8-12.69,5.79-17.55,1.31-2.43,2.24-3.92,2.8-4.85a33.39,33.39,0,0,0,2.43-4.11c-.19-.56-.75-1.49-1.31-2.8a9.44,9.44,0,0,1-.93-2.8c0-2.8,5-5.79,7.84-5.6,5.23.56,8.21,3.92,7.47,9.15a22.66,22.66,0,0,1-2.05,5.6c-2.8,5.79-6.35,12.32-10.27,19.6a14,14,0,0,0-1.87,6.53,6.64,6.64,0,0,0,3.17,5.79,7.1,7.1,0,0,0,3.55.75,23.79,23.79,0,0,0,3.17-.37l.19-.19A80,80,0,0,0,460.33,153c1.31-.75,2.61-1.49,3.73-2.05.93-.56,1.87-.93,2.61-1.49,11.2-7.28,13.25-8.77,23.89-18.48l4.48-4.11a14.35,14.35,0,0,0,1.31-1.49,3.9,3.9,0,0,1,1.49-1.12c.19-.19.37-.19.75-.19a3,3,0,0,1,2.05.93C501.58,125.18,501,127.61,499.71,128.92Z" transform="translate(-13.19 -10.95)"/><path class="cls-1" d="M554.4,125.93c0,.93-.56,1.87-2.24,3.17q-23,13.72-43.12,18.48a9.47,9.47,0,0,1-.37,1.68v.37l-1.12,3.92c-2.8,11-13.44,19.6-24.64,19.6a20.3,20.3,0,0,1-6.91-1.31c-3.36-1.49-5-3.92-5-7.09a8.69,8.69,0,0,1,.93-3.92,25.78,25.78,0,0,1,11.76-11.39c2.05-.93,3.55-1.68,4.48-2.05h.37a29.34,29.34,0,0,1,6-1.68,9.39,9.39,0,0,0,4.11-1.68c1.31-1.12,1.87-3,1.87-5.79a26.65,26.65,0,0,0-1.49-7.09c-.93-3-2.24-7.47-4.29-13.44a11.31,11.31,0,0,1-.75-4.48c0-9.15,7.65-18.29,16.43-18.29a11.38,11.38,0,0,1,9.89,5.6c.56.93-15.25,18.05-15.25,19.36a12.36,12.36,0,0,1-4.48,9.15c-.75.75-3,.93-3.55.93a9.14,9.14,0,0,0-.19-2.05c-.19-1.49.19-2.43,1.49-4.67.56-.93,1.12-1.87,1.49-2.43v-.19l15.63-18.43c-7.28,5.23-10.64,10.64-10.64,17.36a23.33,23.33,0,0,0,1.31,8,75.58,75.58,0,0,1,1.87,8l1.49,6.72v.19a117.53,117.53,0,0,0,32.29-13.25l6.35-3.36a9.14,9.14,0,0,1,3.55-1.87h.19a2.72,2.72,0,0,1,2.43,1.31Zm-57.86,26.13c-7.28.75-14.56,4.11-18.11,8.4-.93,1.49-1.87,3.73-1.31,4.67.56,1.31,3,2.24,4.29,2.05a16.2,16.2,0,0,0,7.28-3C492.25,161.4,493.74,158.6,496.54,152.06Z" transform="translate(-13.19 -10.95)"/><path class="cls-1" d="M617.12,125.93c0,1.49,0,1.68-1.49,3.17-5.23,4.29-8.4,5.23-14.37,5.23-4.67,0-7.28-.75-11.76-2.43l-3.73,3.92a49,49,0,0,1-4.11,4.29c-5,4.48-10.08,6.72-15.49,6.72-6.72,0-17.92-3-17.92-16.61a16.53,16.53,0,0,1,7.47-13.63,5.94,5.94,0,0,1,3.17-1.31,4.34,4.34,0,0,1,4.11,4.48,4.51,4.51,0,0,1-.75,2.43q-3.36,5.88-3.36,10.08c0,5.79,3,9.89,7.47,9.89a6.39,6.39,0,0,0,3.36-.75c6.91-2.8,11.76-6.91,14.93-12.69a41.4,41.4,0,0,0-4.48-3.55c-9-6.16-13.44-16.24-13.44-26.69a35.49,35.49,0,0,1,8.4-23.33c3.36-4.11,7.47-6.16,12.13-6.16,7.65,0,14.56,6.16,17.17,11.95a23.4,23.4,0,0,1,1.87,9.89c0,8.4-2.8,15.49-7.84,25.39l-4.48,9a16.45,16.45,0,0,0,10.08,3.73,10.22,10.22,0,0,0,6.35-1.87,13.62,13.62,0,0,0,1.87-1.68,5.68,5.68,0,0,1,1.87-1.31h.37a3.55,3.55,0,0,1,2.43.93C617.12,125.18,617.12,125.37,617.12,125.93ZM575.87,97.19c0,9.71,4.48,18.67,14.75,24.64l7.84-17.36a36.16,36.16,0,0,0,2.8-14.56c0-9.52-8.59-15.68-13.07-15.68-3,0-5.6,2.24-8,6.53A35.36,35.36,0,0,0,575.87,97.19Z" transform="translate(-13.19 -10.95)"/><path class="cls-1" d="M727,114.05a2.73,2.73,0,0,1-1.12,1.68c-8.21,9.71-28.12,29.8-40.25,39.32-.56.56-1.87,1.49-3.73,3-3.73,3.17-9.52,6.35-14.19,6.35a4.68,4.68,0,0,1-1.87-.19c-6.16-1.49-8.59-8.77-8.77-16.8,0-17,11.57-35.65,25.2-59.54l7.28-13.07c.56-.93,1.31-2.43,2.61-4.48,2.24-4.11,3.17-6.16,3.73-10.64,0-.75.19-2.05.37-3.73a43.8,43.8,0,0,0-12.32,7.65c-1.68,1.31-2.61,2.05-3,2.43-11.2,9.52-23,22-35.09,37.52l-16.61,22A13.71,13.71,0,0,1,621,131a4.14,4.14,0,0,1-1.68.19c-3.73,0-6.16-3-5.41-6.91a20.06,20.06,0,0,1,2.24-6.91,13.28,13.28,0,0,0,1.68-5.41c0-2.05-1.12-3.92-3.17-5.6,2.05-2.05,4.11-3,6.16-3a10,10,0,0,1,3.36.75c2.24.93,3.36,3,3.36,5.79a41,41,0,0,1-1.31,8.77l-.93,4.29a30.83,30.83,0,0,0,4.67-5.6c12.13-18.48,27.25-36.4,45.17-53.76,6.16-5.79,12.32-9.89,23.33-16.8a6.64,6.64,0,0,1,3.55-.93c3.73,0,6.91,3.36,6.91,7.84a14.53,14.53,0,0,1-1.12,5.79l-2.43,5.23c-3,6.72-5.41,11.57-7.47,14.56C685.81,97.74,678.16,115.1,666,145.53a23.55,23.55,0,0,0-1.68,6.91,5.84,5.84,0,0,0,5.6,6.16,6.87,6.87,0,0,0,3.92-1.49,64.93,64.93,0,0,0,7.28-4.67,127.49,127.49,0,0,0,13.07-10.83l2.43-2.24,19.53-19.91c.19-.19,1.68-1.87,4.85-5.41a18.28,18.28,0,0,0,1.31-1.68,2.94,2.94,0,0,1,1.31-1.31c.19-.19.37-.19.75-.19a3.59,3.59,0,0,1,2.24.75A5.13,5.13,0,0,1,727,114.05Z" transform="translate(-13.19 -10.95)"/><path d="M238.72,165.62c-2.3,4.55-3.95,9.52-3.79,14.49a17.86,17.86,0,0,0,1.62,7.07,24.63,24.63,0,0,0,4.2,6,49.49,49.49,0,0,0,12.06,8.72c.55.3,1.1.61,1.66.89l1.71.8c1.15.52,2.26,1.1,3.45,1.55l3.5,1.44c1.18.45,2.38.86,3.57,1.29,2.36.9,4.82,1.57,7.24,2.33s4.92,1.33,7.37,2c4.94,1.28,9.9,2.44,14.91,3.4,10,2,20.11,3.44,30.28,4.49s20.4,1.67,30.65,1.78a274.63,274.63,0,0,0,30.74-1.33c5.11-.52,10.21-1.12,15.28-1.93s10.13-1.67,15.16-2.7,10-2.22,15-3.5c2.48-.66,5-1.32,7.41-2,1.23-.35,2.45-.73,3.67-1.1l1.82-.58.91-.3.45-.15.19-.06a.23.23,0,0,0-.11.09l.37-.18a391,391,0,0,0,53.31-23.6c8.6-4.56,17-9.51,25.8-14.05s18.08-8.5,27.91-10.71a114.57,114.57,0,0,1,29.81-2.49,142.4,142.4,0,0,1,29.42,4.32,165.76,165.76,0,0,1,27.83,10.08,182.87,182.87,0,0,1,25.52,14.68l-.27.42c-17-9.71-35.07-17.35-54-21.41-2.37-.47-4.73-1-7.11-1.35l-3.58-.54-1.79-.27-1.8-.19c-2.39-.25-4.78-.56-7.19-.67l-3.6-.23-3.61-.07c-1.2,0-2.4-.06-3.6,0l-3.59.15c-2.39.12-4.8.09-7.16.43l-3.56.39a31.09,31.09,0,0,0-3.54.5l-3.51.67c-1.16.25-2.35.38-3.49.74l-3.44.94-1.72.47-.86.23-.84.29L546,167.94c-1.12.41-2.27.73-3.36,1.23-2.2.95-4.44,1.79-6.61,2.82s-4.36,2-6.52,3.13c-8.67,4.3-17.21,9.12-26,13.58-2.17,1.15-4.39,2.21-6.59,3.31s-4.41,2.19-6.65,3.19l-6.72,3.07-6.82,2.84-3.41,1.41-3.46,1.28L463,206.35c-4.65,1.6-9.35,3-14,4.58l.37-.18a4,4,0,0,1-.57.24l-.27.08-.47.14-.94.26-1.88.51-3.76,1c-2.51.63-5,1.2-7.55,1.77-5,1.12-10.12,2.06-15.2,3-10.15,1.85-20.37,3.23-30.62,4.41s-20.54,1.94-30.87,2.36a307.48,307.48,0,0,1-31-.33,228.73,228.73,0,0,1-30.82-4.17,201.28,201.28,0,0,1-30-8.44,89.86,89.86,0,0,1-14.22-6.68,49.07,49.07,0,0,1-12.4-9.88,25.7,25.7,0,0,1-4.28-6.86,19.86,19.86,0,0,1-1.26-8,29.74,29.74,0,0,1,5.08-14.73Z" transform="translate(-13.19 -10.95)"/><rect class="cls-2" x="414.81" y="44.05" width="51.03" height="51.03"/><path class="cls-2" d="M453.52,80.51" transform="translate(-13.19 -10.95)"/><path class="cls-3" d="M463.39,84.6l7.2,13-13-7.2-4.09,14.28-4.09-14.28-13,7.21,7.21-13-14.28-4.09,14.28-4.09-7.21-13,13,7.21,4.09-14.28,4.09,14.28,13-7.21-7.2,13,14.28,4.09Zm-4.47-4.09a5.4,5.4,0,1,0-5.4,5.4A5.4,5.4,0,0,0,458.92,80.51Z" transform="translate(-13.19 -10.95)"/><path class="cls-4" d="M463.39,84.6l7.2,13-13-7.2-4.09,14.28-4.09-14.28-13,7.21,7.21-13-14.28-4.09,14.28-4.09-7.21-13,13,7.21,4.09-14.28,4.09,14.28,13-7.21-7.2,13,14.28,4.09Zm-4.47-4.09a5.4,5.4,0,1,0-5.4,5.4A5.4,5.4,0,0,0,458.92,80.51Z" transform="translate(-13.19 -10.95)"/><path class="cls-2" d="M453.52,80.51" transform="translate(-13.19 -10.95)"/><path class="cls-2" d="M453.52,80.51" transform="translate(-13.19 -10.95)"/><path class="cls-5" d="M461.07,83.64l5.52,9.94-9.94-5.51L453.52,99l-3.13-10.93-9.95,5.51L446,83.64,435,80.51,446,77.38l-5.52-9.95L450.38,73,453.52,62,456.64,73l9.94-5.52-5.51,9.95L472,80.51Zm-2.16-3.13a5.4,5.4,0,1,0-5.4,5.4A5.4,5.4,0,0,0,458.92,80.51Z" transform="translate(-13.19 -10.95)"/><path class="cls-6" d="M461.07,83.64l5.52,9.94-9.94-5.51L453.52,99l-3.13-10.93-9.95,5.51L446,83.64,435,80.51,446,77.38l-5.52-9.95L450.38,73,453.52,62,456.64,73l9.94-5.52-5.51,9.95L472,80.51Zm-2.16-3.13a5.4,5.4,0,1,0-5.4,5.4A5.4,5.4,0,0,0,458.92,80.51Z" transform="translate(-13.19 -10.95)"/></svg>